<svg xmlns="http://www.w3.org/2000/svg" width="737.57" height="141.73" viewBox="0 0 737.57 141.73"><title>SOLITA_NEGA_RGB</title><g id="Layer_2" data-name="Layer 2"><g id="Layer_1-2" data-name="Layer 1"><path d="M135.14,71.05a70.4,70.4,0,1,1,140.79,0c0,39.21-30.91,70.68-70.49,70.68C166.24,141.73,135.14,110.26,135.14,71.05Zm107.81,0c0-21.1-16.21-38.44-37.51-38.44S168.31,50,168.31,71.05c0,20.93,15.65,38.26,37.13,38.26C227.12,109.31,243,92,243,71.05Z" fill="#fff"/><path d="M304.28,2.26h33V108.37H397.2v31.48H304.28Z" fill="#fff"/><path d="M430.18,2.26h33V139.85h-33Z" fill="#fff"/><path d="M533.14,33.74h-39V2.26H605.16V33.74h-39V139.85h-33Z" fill="#fff"/><path d="M655,2.26h31.66l50.89,137.59H704.21l-7.16-20.55H644.46l-7.16,20.55H604.13Zm-.38,88.4h32.42L670.85,44.48Z" fill="#fff"/><path d="M0,114.22,21.69,92.57C32.69,105.9,44.17,111,62.57,111c11.12,0,17.15-5.28,17.15-12.82,0-9.23-9-11.12-28.46-15.83-20-4.52-43.34-11.87-43.34-40.14C7.92,18.28,28.84,0,58.24,0,83.49,0,98.3,8.58,113,24.41l-20,20C83.07,33.18,73.67,28.84,57.48,28.84c-11.12,0-16.39,6-16.39,12.25,0,8.48,11.31,10.17,27.89,14.13,20.54,4.71,44.86,11.88,44.86,41.47,0,26-22,45-52.4,45C30.91,141.73,13,129.86,0,114.22Z" fill="#fff"/></g></g></svg>